<svg id="Layer_1" data-name="Layer 1" xmlns="http://www.w3.org/2000/svg" xmlns:xlink="http://www.w3.org/1999/xlink" viewBox="0 0 372.38 94.61"><defs><style>.cls-1{fill:url(#linear-gradient);}.cls-2{fill:url(#linear-gradient-2);}.cls-3{font-size:45.09px;}.cls-3,.cls-4{fill:#ededee;font-family:Roboto-Thin, Roboto;font-weight:200;}.cls-4{font-size:12px;}.cls-5{fill:#616262;}</style><linearGradient id="linear-gradient" x1="97.35" y1="69.34" x2="144.37" y2="22.16" gradientTransform="matrix(1, 0, 0, -1, -44.94, 126.53)" gradientUnits="userSpaceOnUse"><stop offset="0" stop-color="#3a7fb9"/><stop offset="1" stop-color="#376a95"/></linearGradient><linearGradient id="linear-gradient-2" x1="126.26" y1="39.31" x2="176.77" y2="-9.08" gradientTransform="matrix(1, 0, 0, -1, -44.94, 126.53)" gradientUnits="userSpaceOnUse"><stop offset="0" stop-color="#fee053"/><stop offset="1" stop-color="#ffc433"/></linearGradient></defs><g id="layer1"><g id="g1894"><path id="path8615" class="cls-1" d="M90.7,48.7c-24.14,0-22.64,10.47-22.64,10.47l0,10.84h23v3.26H58.94S43.49,71.52,43.49,95.88,57,119.37,57,119.37h8v-11.3s-.43-13.48,13.27-13.48h22.85S114,94.79,114,82.18V61.32S115.93,48.7,90.7,48.7ZM78,56a4.15,4.15,0,1,1-4.15,4.14A4.14,4.14,0,0,1,78,56Z" transform="translate(-43.49 -48.7)"/><path id="path8620" class="cls-2" d="M91.39,143.3c24.14,0,22.63-10.47,22.63-10.47L114,122H91v-3.26h32.2s15.44,1.75,15.44-22.61-13.48-23.49-13.48-23.49h-8v11.3s.44,13.48-13.27,13.48H80.94s-12.84-.2-12.84,12.41v20.86S66.15,143.3,91.39,143.3Zm12.7-7.29a4.15,4.15,0,1,1,4.14-4.14A4.14,4.14,0,0,1,104.09,136Z" transform="translate(-43.49 -48.7)"/></g></g><text class="cls-3" transform="translate(103.47 64.43)">Simple RPG</text><text class="cls-4" transform="translate(186.34 74.56)">v2.1a-stable</text><text x="-43.49" y="-48.7"/><path class="cls-5" d="M415.87,77.5h-5.82L390.29,97.25l-2.68-2.68-.89-2.66a.95.95,0,0,0-1.85.23l-.38,4.9,3.94,3.94-6.82,6.82h-1.79a1.5,1.5,0,0,0-1.5,1.5v4.25a1.5,1.5,0,0,0,1.5,1.49h4.25a1.5,1.5,0,0,0,1.5-1.49v-2.26l6.59-6.59,4,4,4.53-.75a1,1,0,0,0,.07-1.87l-2.17-.54-2.66-2.67,20-19.75Zm-31.62,36.05a.18.18,0,0,1-.18.18h-4.25a.18.18,0,0,1-.18-.18V109.3a.19.19,0,0,1,.18-.19h4.25a.19.19,0,0,1,.18.19v4.25Zm1.32-4.12v-.13a1.5,1.5,0,0,0-1.5-1.5h-.59l5.88-5.89.94.93.93.93Zm13.14-2.53-2.13.36-3.49-3.49h0l-1.87-1.86-5.37-5.37L386,94l.42,1.24,2.9,2.91h0l2.79,2.78,5.73,5.73Zm-3.75-5-1.86-1.86-1.87-1.87L410.6,78.81h2.79L394,98.18a.66.66,0,0,0,0,.94.7.7,0,0,0,.47.19.68.68,0,0,0,.46-.19l19.6-19.61v3Z" transform="translate(-43.49 -48.7)"/></svg>